<?xml version="1.0" encoding="utf-8"?>
<!-- Generator: Adobe Illustrator 18.1.1, SVG Export Plug-In . SVG Version: 6.00 Build 0)  -->
<svg version="1.1" id="Layer_1" xmlns="http://www.w3.org/2000/svg" xmlns:xlink="http://www.w3.org/1999/xlink" x="0px" y="0px"
	 width="482px" height="482px" viewBox="-718 300 482 482" enable-background="new -718 300 482 482" xml:space="preserve">
<g>
	
		<linearGradient id="SVGID_1_" gradientUnits="userSpaceOnUse" x1="-1058.6105" y1="146.2983" x2="-1169.651" y2="145.1496" gradientTransform="matrix(2.8444 0 0 2.8444 2648.5583 193.6039)">
		<stop  offset="0" style="stop-color:#5B7BEF"/>
		<stop  offset="0.2532" style="stop-color:#4B6BE1"/>
		<stop  offset="0.7474" style="stop-color:#2341BE"/>
		<stop  offset="0.7995" style="stop-color:#1E3CBA"/>
	</linearGradient>
	<path fill="url(#SVGID_1_)" d="M-581.9,669.8c4.6,3.3,29,21.1,53.1,38.6C-502.9,727.2-449,649-449,649l-193.6-140.9l-6.4-4.6
		C-649,503.5-640.8,627-581.9,669.8z"/>
	
		<linearGradient id="SVGID_2_" gradientUnits="userSpaceOnUse" x1="-1148.7809" y1="169.0941" x2="-1148.7809" y2="47.8498" gradientTransform="matrix(2.8444 0 0 2.8444 2648.5583 193.6039)">
		<stop  offset="0.1451" style="stop-color:#6C90FE"/>
		<stop  offset="0.2909" style="stop-color:#688BFB"/>
		<stop  offset="0.4515" style="stop-color:#5E7EF1"/>
		<stop  offset="0.4807" style="stop-color:#5B7BEF"/>
		<stop  offset="0.5705" style="stop-color:#4B6BE1"/>
		<stop  offset="0.7456" style="stop-color:#2341BE"/>
		<stop  offset="0.7641" style="stop-color:#1E3CBA"/>
	</linearGradient>
	<path fill="url(#SVGID_2_)" d="M-607.5,564.5L-607.5,564.5l78.5-242l2.3-7.4c0,0-94.9-5.1-144.7,137.3
		c-7.6,23.4-39.9,123.1-39.9,123.1l129.5,94c-9.1-9.1-16.5-19.6-21.9-31C-613.9,615.8-615.7,589.7-607.5,564.5z"/>
	
		<linearGradient id="SVGID_3_" gradientUnits="userSpaceOnUse" x1="-1167.0686" y1="72.9429" x2="-1063.5876" y2="44.7764" gradientTransform="matrix(2.8444 0 0 2.8444 2648.5583 193.6039)">
		<stop  offset="0.1451" style="stop-color:#6C90FE"/>
		<stop  offset="0.2847" style="stop-color:#688BFB"/>
		<stop  offset="0.4384" style="stop-color:#5E7EF1"/>
		<stop  offset="0.4664" style="stop-color:#5B7BEF"/>
		<stop  offset="0.5688" style="stop-color:#4B6AE1"/>
		<stop  offset="0.7709" style="stop-color:#203EBC"/>
		<stop  offset="0.779" style="stop-color:#1E3CBA"/>
	</linearGradient>
	<path fill="url(#SVGID_3_)" d="M-329.1,395.4c0,0-69.6-95.2-163.2-95.2c-47.5,0-129.5,0-129.5,0l-49.5,152.1
		c5.8-11.4,13.5-21.9,22.9-30.2c18.5-16.8,42.9-26.7,69.1-26.7l0,0h236.4H-329.1z"/>
	
		<linearGradient id="SVGID_4_" gradientUnits="userSpaceOnUse" x1="-1081.2708" y1="43.5815" x2="-1032.3873" y2="114.1222" gradientTransform="matrix(2.8444 0 0 2.8444 2648.5583 193.6039)">
		<stop  offset="0.1451" style="stop-color:#6C90FE"/>
		<stop  offset="0.4391" style="stop-color:#5E7FF2"/>
		<stop  offset="0.5014" style="stop-color:#5B7BEF"/>
		<stop  offset="0.8818" style="stop-color:#1E3CBA"/>
	</linearGradient>
	<path fill="url(#SVGID_4_)" d="M-292.2,423.4c-2.8-8.6-39.9-123.4-39.9-123.4h-159.9c12.7,1.8,24.9,6.1,35.8,12.2
		c21.6,12.7,38.6,33,46.5,57.9l0,0l74.7,230.3l2.8,8.4C-332,609-242.9,575.7-292.2,423.4z"/>
	<path fill="#6C90FE" d="M-292.2,423.4c2,12.7,1.8,25.7-0.8,37.9c-5.1,24.4-19.1,47-40.1,62.3l0,0L-558,686.8l31,95.2l284.3-206.4
		L-292.2,423.4z"/>
</g>
</svg>
